<?xml version="1.0" encoding="iso-8859-1"?>
<!-- Generator: Adobe Illustrator 19.0.0, SVG Export Plug-In . SVG Version: 6.00 Build 0)  -->
<svg version="1.1" id="Capa_1" xmlns="http://www.w3.org/2000/svg" xmlns:xlink="http://www.w3.org/1999/xlink" x="0px" y="0px"
	 viewBox="0 0 512 512" style="enable-background:new 0 0 512 512;" xml:space="preserve">
<g>
	<g>
		<path d="M389.628,228.343c7.561-42.871-18.756-85.367-61.577-97.067c-25.6-6.972-52.582-1.749-73.574,13.969
			c-16.085-12.066-35.772-18.031-56.004-16.845c-22.75,1.306-43.639,11.401-58.803,28.416
			c-17.519,19.661-24.866,45.918-20.343,71.526c-18.398,7.561-33.434,21.188-42.846,38.997
			c-10.65,20.147-12.817,43.238-6.093,65.024c11.11,36.011,43.853,60.177,81.51,60.177c7.808,0.043,15.906-1.101,23.578-3.319
			c20.036,24.32,49.399,37.197,79.13,37.197c20.855,0,41.907-6.34,60.049-19.516c7.006-5.094,13.312-11.034,18.807-17.69
			c7.612,2.202,15.454,3.319,23.39,3.319c0.06,0,0.102,0,0.162,0c22.733,0,44.117-8.832,60.245-24.875
			c16.137-16.077,25.054-37.495,25.096-60.288C442.424,272.299,421.534,241.459,389.628,228.343z M405.201,355.55
			c-12.877,12.843-29.986,19.908-48.196,19.908c-8.098,0.137-16.017-1.417-23.612-4.241c-3.584-1.306-7.629-0.12-9.882,2.987
			c-5.265,7.262-11.622,13.619-18.884,18.884c-38.059,27.665-91.537,19.208-119.194-18.884c-1.647-2.261-4.241-3.516-6.912-3.516
			c-0.99,0-1.997,0.179-2.978,0.538c-7.552,2.816-15.454,4.241-23.492,4.241c-0.051,0-0.094,0-0.137,0
			c-30.131,0-56.337-19.336-65.212-48.145c-5.376-17.425-3.652-35.9,4.872-52.028c8.516-16.111,22.81-27.955,40.235-33.331
			c4.403-1.357,6.929-5.956,5.717-10.402c-6.11-22.383-0.546-46.08,14.891-63.403c12.134-13.619,28.843-21.692,47.044-22.741
			c18.167-1.016,35.721,5.06,49.34,17.195c3.243,2.884,8.115,2.884,11.358,0c17.323-15.437,41.003-21.009,63.394-14.891
			c36.318,9.916,57.788,47.531,47.872,83.84c-1.212,4.437,1.314,9.045,5.717,10.402c28.86,8.9,48.205,35.166,48.145,65.357
			C425.255,325.547,418.121,342.682,405.201,355.55z"/>
	</g>
</g>
<g>
	<g>
		<path d="M288.602,409.6v85.333h-68.267V409.6h-17.067v93.867c0,4.719,3.823,8.533,8.533,8.533h85.333
			c4.719,0,8.533-3.814,8.533-8.533V409.6H288.602z"/>
	</g>
</g>
<g>
	<g>
		<rect x="263.002" y="460.8" width="34.133" height="17.067"/>
	</g>
</g>
<g>
	<g>
		<rect x="211.802" y="443.733" width="25.6" height="17.067"/>
	</g>
</g>
<g>
	<g>
		<rect x="245.935" y="375.467" width="17.067" height="17.067"/>
	</g>
</g>
<g>
	<g>
		<rect x="245.935" y="307.2" width="17.067" height="17.067"/>
	</g>
</g>
<g>
	<g>
		<rect x="211.802" y="324.267" width="17.067" height="17.067"/>
	</g>
</g>
<g>
	<g>
		<rect x="211.802" y="358.4" width="17.067" height="17.067"/>
	</g>
</g>
<g>
	<g>
		<rect x="280.069" y="358.4" width="17.067" height="17.067"/>
	</g>
</g>
<g>
	<g>
		<rect x="194.735" y="238.933" width="17.067" height="17.067"/>
	</g>
</g>
<g>
	<g>
		<rect x="194.735" y="170.667" width="17.067" height="17.067"/>
	</g>
</g>
<g>
	<g>
		<rect x="160.602" y="187.733" width="17.067" height="17.067"/>
	</g>
</g>
<g>
	<g>
		<rect x="297.135" y="238.933" width="17.067" height="17.067"/>
	</g>
</g>
<g>
	<g>
		<rect x="263.002" y="187.733" width="17.067" height="17.067"/>
	</g>
</g>
<g>
	<g>
		<rect x="331.269" y="187.733" width="17.067" height="17.067"/>
	</g>
</g>
<g>
	<g>
		<rect x="263.002" y="221.867" width="17.067" height="17.067"/>
	</g>
</g>
<g>
	<g>
		<rect x="297.135" y="204.8" width="17.067" height="17.067"/>
	</g>
</g>
<g>
	<g>
		<rect x="143.535" y="264.533" width="17.067" height="17.067"/>
	</g>
</g>
<g>
	<g>
		<rect x="109.402" y="281.6" width="17.067" height="17.067"/>
	</g>
</g>
<g>
	<g>
		<rect x="109.402" y="315.733" width="17.067" height="17.067"/>
	</g>
</g>
<g>
	<g>
		<rect x="177.669" y="315.733" width="17.067" height="17.067"/>
	</g>
</g>
<g>
	<g>
		<rect x="143.535" y="298.667" width="17.067" height="17.067"/>
	</g>
</g>
<g>
	<g>
		<rect x="348.335" y="332.8" width="17.067" height="17.067"/>
	</g>
</g>
<g>
	<g>
		<rect x="348.335" y="264.533" width="17.067" height="17.067"/>
	</g>
</g>
<g>
	<g>
		<rect x="382.469" y="281.6" width="17.067" height="17.067"/>
	</g>
</g>
<g>
	<g>
		<rect x="314.202" y="315.733" width="17.067" height="17.067"/>
	</g>
</g>
<g>
	<g>
		<rect x="382.469" y="315.733" width="17.067" height="17.067"/>
	</g>
</g>
<g>
	<g>
		<path d="M114.684,136.533H35.896c-9.148-0.102-17.715,3.43-24.201,9.83c-6.494,6.4-10.103,14.95-10.163,24.055
			c-0.009,1.417,0.068,2.833,0.239,4.25L38.2,478.797C40.29,497.724,56.222,512,75.269,512c19.038,0,34.978-14.268,37.069-33.186
			l-16.964-1.886c-1.135,10.266-9.779,18.005-20.105,18.005c-10.325,0-18.97-7.74-20.104-18.082L18.727,172.646
			c-0.085-0.691-0.119-1.391-0.119-2.099c0.026-4.557,1.835-8.832,5.077-12.032c3.251-3.2,7.748-5.009,12.16-4.915h78.839
			c9.412,0,17.067,7.654,17.067,17.067h17.067C148.817,151.842,133.509,136.533,114.684,136.533z"/>
	</g>
</g>
<g>
	<g>
		<path d="M107.67,374.451L95.373,476.928c-1.135,10.266-9.779,18.005-20.105,18.005V512c19.038,0,34.978-14.268,37.052-33.118
			l12.288-102.4L107.67,374.451z"/>
	</g>
</g>
<g>
	<g>
		<rect x="19.802" y="7.347" transform="matrix(0.9829 -0.1843 0.1843 0.9829 -13.6696 6.5377)" width="17.067" height="138.918"/>
	</g>
</g>
<g>
	<g>
		<rect x="52.75" y="68.269" transform="matrix(0.1841 -0.9829 0.9829 0.1841 24.2183 182.7803)" width="138.913" height="17.067"/>
	</g>
</g>
<g>
	<g>
		<rect x="66.735" width="17.067" height="119.467"/>
	</g>
</g>
<g>
	<g>
		<rect x="15.535" y="187.733" width="42.667" height="17.067"/>
	</g>
</g>
<g>
	<g>
		<rect x="24.069" y="238.933" width="25.6" height="17.067"/>
	</g>
</g>
<g>
	<g>
		<rect x="32.602" y="341.333" width="34.133" height="17.067"/>
	</g>
</g>
<g>
	<g>
		<rect x="75.269" y="392.533" width="42.667" height="17.067"/>
	</g>
</g>
<g>
	<g>
		<rect x="49.669" y="443.733" width="17.067" height="17.067"/>
	</g>
</g>
<g>
	<g>
		<rect x="75.269" y="187.733" width="25.6" height="17.067"/>
	</g>
</g>
<g>
	<g>
		<path d="M408.069,0c-56.465,0-102.4,45.935-102.4,102.4v34.133h17.067V102.4c0-47.053,38.281-85.333,85.333-85.333
			s85.333,38.281,85.333,85.333v213.342c0.017,25.071-9.737,48.657-27.46,66.415l-57.882,58.035l-57.685-57.6l-1.033-1.084
			c-0.845-0.87-1.69-1.758-2.458-2.688l-13.15,10.88c1.024,1.237,2.15,2.424,3.26,3.593l65.041,65.015
			c1.596,1.596,3.772,2.492,6.033,2.492c2.278,0,4.446-0.896,6.042-2.509l63.915-64.085c20.941-20.975,32.461-48.836,32.444-78.473
			V102.4C510.469,45.935,464.534,0,408.069,0z"/>
	</g>
</g>
<g>
	<g>
		<rect x="399.535" y="366.933" width="17.067" height="145.067"/>
	</g>
</g>
<g>
	<g>
		<rect x="399.535" y="59.733" width="17.067" height="187.733"/>
	</g>
</g>
<g>
	<g>
		<path d="M453.236,79.3l-45.167,45.167L362.902,79.3l-12.066,12.066l51.2,51.2c1.664,1.664,3.849,2.5,6.033,2.5
			c2.185,0,4.369-0.836,6.033-2.5l51.2-51.2L453.236,79.3z"/>
	</g>
</g>
<g>
	<g>
		
			<rect x="397.468" y="332.799" transform="matrix(0.7071 -0.7071 0.7071 0.7071 -114.3391 406.6248)" width="72.405" height="17.067"/>
	</g>
</g>
<g>
	<g>
		<path d="M453.236,156.1l-45.167,45.167l-28.1-28.1l-12.066,12.066l34.133,34.133c1.664,1.664,3.849,2.5,6.033,2.5
			c2.185,0,4.369-0.836,6.033-2.5l51.2-51.2L453.236,156.1z"/>
	</g>
</g>
<g>
	<g>
		
			<rect x="418.025" y="247.473" transform="matrix(0.7071 -0.7071 0.7071 0.7071 -51.5176 387.638)" width="48.273" height="17.067"/>
	</g>
</g>
<g>
</g>
<g>
</g>
<g>
</g>
<g>
</g>
<g>
</g>
<g>
</g>
<g>
</g>
<g>
</g>
<g>
</g>
<g>
</g>
<g>
</g>
<g>
</g>
<g>
</g>
<g>
</g>
<g>
</g>
</svg>
